<?xml version="1.0" encoding="UTF-8"?>
<svg id="Layer_2" xmlns="http://www.w3.org/2000/svg" viewBox="0 0 162.05 131.26">
  <defs>
    <style>
      .cls-1 {
        fill: #fff5e9;
      }

      .cls-2 {
        fill: #553400;
      }

      .cls-2, .cls-3, .cls-4, .cls-5 {
        stroke: #000;
        stroke-miterlimit: 10;
      }

      .cls-3 {
        fill: #1f32ff;
      }

      .cls-4 {
        fill: #e90000;
      }

      .cls-5 {
        fill: #00e900;
      }
    </style>
  </defs>
  <g id="Layer_1-2" data-name="Layer_1">
    <g>
      <g>
        <ellipse class="cls-4" cx="86.09" cy="33.64" rx="45.77" ry="33.14"/>
        <path class="cls-1" d="M80.33,10.64c-1.8-4.78-16.85-3.28-26.22,7.33s-9.37,14.81-5.41,16.7c3.17,1.52,5.64-6.8,14.65-13.23s18.6-6.48,16.98-10.8Z"/>
      </g>
      <g>
        <ellipse class="cls-3" cx="115.77" cy="61.72" rx="45.77" ry="33.14"/>
        <path class="cls-1" d="M110.01,38.73c-1.8-4.78-16.85-3.28-26.22,7.33s-9.37,14.81-5.41,16.7c3.17,1.52,5.64-6.8,14.65-13.23s18.6-6.48,16.98-10.8Z"/>
      </g>
      <g>
        <ellipse class="cls-5" cx="46.27" cy="69.28" rx="45.77" ry="33.14"/>
        <path class="cls-1" d="M40.51,46.28c-1.8-4.78-16.85-3.28-26.22,7.33s-9.37,14.81-5.41,16.7c3.17,1.52,5.64-6.8,14.65-13.23s18.6-6.48,16.98-10.8Z"/>
      </g>
      <g>
        <ellipse class="cls-2" cx="98.51" cy="97.62" rx="45.77" ry="33.14"/>
        <path class="cls-1" d="M92.75,74.63c-1.8-4.78-16.85-3.28-26.22,7.33s-9.37,14.81-5.41,16.7c3.17,1.52,5.64-6.8,14.65-13.23s18.6-6.48,16.98-10.8Z"/>
      </g>
    </g>
  </g>
</svg>