<?xml version="1.0" encoding="UTF-8"?>
<svg id="Layer_2" xmlns="http://www.w3.org/2000/svg" viewBox="0 0 172.81 151.33">
  <defs>
    <style>
      .cls-1, .cls-2 {
        fill: #fff4df;
      }

      .cls-3 {
        fill: none;
        stroke-width: 1.01px;
      }

      .cls-3, .cls-2 {
        stroke: #000;
        stroke-miterlimit: 10;
      }

      .cls-4 {
        fill: #f7931e;
      }
    </style>
  </defs>
  <g id="Layer_1-2" data-name="Layer_1">
    <g>
      <path class="cls-2" d="M123.78,97.05c.23,1.3,8.51,53.23,8.51,53.23,0,0,40.36-41.13,40.01-41.23s-48.52-12-48.52-12Z"/>
      <path class="cls-2" d="M54.51,48.64c-1.31-.19-53.46-6.89-53.46-6.89C1.05,41.75,40.93.16,41.04.5s13.46,48.14,13.46,48.14Z"/>
      <path class="cls-4" d="M88.76,28.7c-24.66,0-44.64,19.99-44.64,44.64,0,10.21,3.44,19.62,9.2,27.14l55.22-67.16c-5.96-2.95-12.67-4.62-19.78-4.62Z"/>
      <path class="cls-4" d="M71.7,114.61c5.26,2.17,11.01,3.38,17.05,3.38,24.66,0,44.64-19.99,44.64-44.64,0-9.14-2.75-17.63-7.46-24.71l-54.24,65.97Z"/>
      <path class="cls-1" d="M108.53,33.32l-55.22,67.16c4.75,6.19,11.07,11.1,18.39,14.13l54.24-65.97c-4.34-6.52-10.34-11.82-17.4-15.32Z"/>
      <circle class="cls-3" cx="88.76" cy="73.35" r="44.64"/>
    </g>
  </g>
</svg>