<?xml version="1.0" encoding="UTF-8"?>
<svg id="Layer_2" xmlns="http://www.w3.org/2000/svg" viewBox="0 0 61.19 205.88">
  <defs>
    <style>
      .cls-1 {
        fill: blue;
      }
    </style>
  </defs>
  <g id="Layer_1-2" data-name="Layer_1">
    <g>
      <g>
        <rect class="cls-1" x=".5" y="78.02" width="60.19" height="127.36" rx="11.5" ry="11.5"/>
        <path d="M49.19,78.52c6.07,0,11,4.93,11,11v104.36c0,6.07-4.93,11-11,11H12c-6.07,0-11-4.93-11-11v-104.36c0-6.07,4.93-11,11-11h37.19M49.19,77.52H12C5.4,77.52,0,82.92,0,89.52v104.36C0,200.48,5.4,205.88,12,205.88h37.19c6.6,0,12-5.4,12-12v-104.36c0-6.6-5.4-12-12-12h0Z"/>
      </g>
      <g>
        <path class="cls-1" d="M30.6,60.69C14,60.69.5,47.19.5,30.6S14,.5,30.6.5s30.1,13.5,30.1,30.1-13.5,30.1-30.1,30.1Z"/>
        <path d="M30.6,1c16.32,0,29.6,13.28,29.6,29.6s-13.28,29.6-29.6,29.6S1,46.92,1,30.6,14.28,1,30.6,1M30.6,0C13.7,0,0,13.7,0,30.6s13.7,30.6,30.6,30.6,30.6-13.7,30.6-30.6S47.5,0,30.6,0h0Z"/>
      </g>
    </g>
  </g>
</svg>