<?xml version="1.0" encoding="UTF-8"?>
<svg id="Layer_2" xmlns="http://www.w3.org/2000/svg" viewBox="0 0 297.61 200.84">
  <defs>
    <style>
      .cls-1 {
        fill: #e9feff;
      }

      .cls-1, .cls-2, .cls-3 {
        stroke: #000;
        stroke-miterlimit: 10;
      }

      .cls-2 {
        fill: #ff9f15;
      }

      .cls-3 {
        fill: #552600;
      }
    </style>
  </defs>
  <g id="Layer_1-2" data-name="Layer_1">
    <g>
      <polygon class="cls-1" points="247.55 5.07 247.55 193.82 296.05 193.82 265.19 152.69 296.05 145.53 266.29 119.59 296.05 106.11 266.29 99.44 296.05 72.07 265.19 68.49 296.05 34.45 266.29 34.45 296.05 5.07 247.55 5.07"/>
      <polygon class="cls-1" points="62.24 192.8 58.94 5.07 1.13 6.09 38.64 46.34 1.98 54.11 37.9 79.29 2.66 93.32 38.26 99.33 3.26 127.17 40.11 130.09 3.92 164.6 39.39 163.97 4.43 193.82 62.24 192.8"/>
      <rect class="cls-2" x="39.5" y=".5" width="223.7" height="199.84" rx="12" ry="12"/>
      <ellipse class="cls-3" cx="154.28" cy="104.72" rx="78.41" ry="74.5"/>
    </g>
  </g>
</svg>