<?xml version="1.0" encoding="UTF-8"?>
<svg id="Layer_2" xmlns="http://www.w3.org/2000/svg" viewBox="0 0 305 305">
  <defs>
    <style>
      .cls-1 {
        fill: #ff0;
      }

      .cls-1, .cls-2, .cls-3, .cls-4 {
        stroke: #000;
        stroke-miterlimit: 10;
      }

      .cls-1, .cls-2, .cls-4 {
        stroke-width: 5px;
      }

      .cls-3 {
        stroke-width: 4.91px;
      }

      .cls-3, .cls-4 {
        fill: none;
        stroke-linecap: round;
      }
    </style>
  </defs>
  <g id="Layer_1-2" data-name="Layer_1">
    <circle class="cls-1" cx="152.5" cy="152.5" r="150"/>
    <ellipse class="cls-2" cx="95.46" cy="104.25" rx="13.93" ry="26.45"/>
    <ellipse class="cls-2" cx="201.74" cy="104.25" rx="13.93" ry="26.45"/>
    <path d="M75.91,194.53c24.68,37.06,98.93,43.24,132.49,16.9,5.15-4.23,9.39-9.65,12.5-16.38.57-1.31,2.12-1.91,3.42-1.3.92.42,1.46,1.32,1.49,2.27.18,8.29-2.88,16.9-8.02,23.95-29.67,38.93-104.61,34.29-135.07-1.58-5.43-6.37-9.58-13.9-11.39-21.85-.31-1.37.55-2.73,1.92-3.05,1.05-.24,2.09.21,2.67,1.04h0Z"/>
    <path class="cls-4" d="M67.12,206.12c1.89-10.58,8.97-21.07,18.42-15.59"/>
    <path class="cls-3" d="M230.63,206.12c-1.82-10.58-8.66-21.07-17.79-15.59"/>
  </g>
</svg>